<?xml version="1.0" encoding="iso-8859-1"?>
<!-- Generator: Adobe Illustrator 17.0.1, SVG Export Plug-In . SVG Version: 6.00 Build 0)  -->
<!DOCTYPE svg PUBLIC "-//W3C//DTD SVG 1.1//EN" "http://www.w3.org/Graphics/SVG/1.1/DTD/svg11.dtd">
<svg version="1.1" id="&#x56FE;&#x5C42;_1" xmlns="http://www.w3.org/2000/svg" xmlns:xlink="http://www.w3.org/1999/xlink" x="0px"
	 y="0px" width="48.068px" height="48.068px" viewBox="570.68 273.888 48.068 48.068"
	 style="enable-background:new 570.68 273.888 48.068 48.068;" xml:space="preserve">
<path style="fill:#E73520;" d="M594.714,281.9c-2.279,0-4.446,0.479-6.409,1.337v9.082l3.529-3.529
	c0.728-0.752,1.747-1.221,2.876-1.221c1.111,0,2.116,0.453,2.842,1.184l0.001-0.001l7.568,7.568h-5.688l-3.278-3.277l-0.052-0.052
	c-0.36-0.347-0.849-0.562-1.389-0.562c-0.516,0-0.985,0.197-1.34,0.517l-0.146,0.146l-3.229,3.229h-5.697h-0.004v-10.569
	c-3.431,2.939-5.608,7.299-5.608,12.171c0,8.849,7.174,16.023,16.023,16.023c2.276,0,4.44-0.478,6.401-1.333v-9.085l-3.529,3.529
	c-0.728,0.752-1.747,1.221-2.876,1.221c-1.111,0-2.116-0.453-2.842-1.184v0.001l-7.568-7.568h5.688l3.278,3.277l0.052,0.052
	c0.36,0.347,0.849,0.562,1.389,0.562c0.516,0,0.985-0.197,1.34-0.517l0.146-0.146l3.229-3.229h5.697h0.004v10.576
	c3.436-2.939,5.616-7.303,5.616-12.178C610.736,289.073,603.563,281.9,594.714,281.9z"/>
<path style="fill:#E73520;" d="M594.714,273.888c-13.274,0-24.034,10.76-24.034,24.034s10.76,24.034,24.034,24.034
	s24.034-10.76,24.034-24.034C618.748,284.649,607.987,273.888,594.714,273.888z M594.714,317.951
	c-11.061,0-20.029-8.967-20.029-20.029c0-11.061,8.967-20.028,20.029-20.028s20.029,8.967,20.029,20.028
	C614.742,308.984,605.775,317.951,594.714,317.951z"/>
</svg>
